<!DOCTYPE svg PUBLIC "-//W3C//DTD SVG 20010904//EN" "http://www.w3.org/TR/2001/REC-SVG-20010904/DTD/svg10.dtd">
<svg version="1.0" xmlns="http://www.w3.org/2000/svg" width="1200px" height="211px" viewBox="0 0 12000 2110" preserveAspectRatio="xMidYMid meet">
<g id="layer101" fill="#301b46" stroke="none">
 <path d="M465 2104 c-195 -31 -364 -173 -437 -370 -21 -56 -22 -76 -26 -461 l-3 -403 130 0 130 0 3 383 c3 374 3 383 26 428 29 59 82 112 141 141 65 32 177 32 242 0 65 -32 125 -96 149 -159 19 -50 20 -78 20 -423 l0 -370 130 0 129 0 3 378 c3 369 3 378 26 427 100 218 403 232 517 25 l30 -55 3 -387 3 -388 129 0 130 0 0 620 c0 584 -1 620 -17 620 -44 0 -95 -24 -141 -65 l-49 -44 -87 44 c-104 52 -196 70 -304 61 -120 -11 -246 -68 -329 -148 l-41 -40 -42 38 c-59 55 -132 100 -204 124 -60 20 -200 33 -261 24z"/>
 <path d="M3995 2103 c-132 -18 -249 -77 -350 -178 -131 -131 -186 -263 -186 -445 0 -180 55 -314 181 -440 124 -125 263 -180 451 -180 118 0 197 18 297 69 l62 31 0 -365 0 -365 130 0 130 0 0 940 0 940 -27 0 c-45 -1 -107 -34 -158 -87 l-49 -50 -42 29 c-126 85 -285 121 -439 101z m242 -293 c77 -36 147 -104 181 -178 23 -49 26 -70 26 -152 0 -81 -3 -103 -26 -150 -38 -82 -89 -134 -168 -174 -83 -41 -156 -52 -236 -36 -80 16 -147 54 -200 113 -72 81 -88 125 -89 247 0 101 1 107 34 168 35 63 100 130 156 160 93 49 220 50 322 2z"/>
 <path d="M5865 2099 c-231 -36 -421 -201 -501 -439 -28 -82 -25 -292 4 -374 36 -97 89 -182 158 -250 75 -75 158 -125 264 -157 102 -31 265 -31 360 0 65 22 160 70 192 98 15 13 20 11 52 -25 51 -56 104 -90 154 -98 l42 -7 0 633 0 633 -42 -7 c-53 -9 -95 -34 -148 -92 -37 -41 -43 -44 -58 -31 -32 28 -128 76 -189 96 -75 24 -206 33 -288 20z m250 -283 c73 -33 148 -106 182 -175 25 -51 28 -66 27 -161 0 -123 -17 -171 -85 -245 -96 -104 -233 -146 -364 -111 -72 19 -112 42 -165 96 -54 53 -77 93 -96 165 -24 89 -13 191 30 274 23 44 103 124 147 147 98 50 227 55 324 10z"/>
 <path d="M7760 2104 c-229 -30 -445 -222 -516 -459 -25 -82 -25 -248 0 -330 33 -110 84 -194 170 -280 129 -128 255 -179 441 -179 92 0 123 5 190 27 80 27 202 98 212 123 3 7 -30 56 -72 109 l-77 95 -28 -20 c-90 -64 -208 -92 -301 -70 -197 46 -322 228 -289 418 14 84 50 150 110 206 60 56 110 82 188 96 87 15 172 -1 255 -50 l65 -37 76 93 c42 51 76 95 76 98 0 11 -58 59 -106 86 -28 16 -79 39 -115 50 -64 20 -211 32 -279 24z"/>
 <path d="M9340 2100 c-114 -20 -236 -90 -314 -181 -56 -65 -114 -191 -126 -274 -5 -41 -10 -314 -10 -652 l0 -583 130 0 130 0 0 230 0 230 115 0 115 0 0 25 c0 34 -23 87 -56 130 -37 49 -116 105 -148 105 l-27 0 3 248 c3 233 4 250 26 298 41 89 131 158 224 170 l48 7 0 128 0 129 -32 -1 c-18 -1 -53 -5 -78 -9z"/>
 <path d="M11485 2104 c-100 -16 -236 -82 -318 -155 -71 -63 -148 -178 -178 -266 -20 -58 -24 -87 -24 -198 0 -147 17 -215 80 -320 120 -199 309 -305 545 -305 155 0 281 42 377 125 l35 30 -78 98 -77 97 -26 -17 c-141 -93 -290 -103 -418 -27 -66 39 -105 80 -137 144 -76 150 -52 315 64 430 74 75 145 105 245 105 94 0 140 -12 215 -57 l55 -33 68 85 c98 122 96 111 27 160 -93 65 -200 99 -323 104 -56 3 -115 2 -132 0z"/>
 <path d="M2570 1475 l0 -615 130 0 130 0 0 615 0 615 -130 0 -130 0 0 -615z"/>
 <path d="M10070 1480 l0 -610 130 0 130 0 0 610 0 610 -130 0 -130 0 0 -610z"/>
 <path d="M2570 291 l0 -118 34 -45 c56 -73 142 -128 201 -128 l25 0 0 120 0 119 -61 65 c-62 67 -126 106 -172 106 l-27 0 0 -119z"/>
 <path d="M10070 297 c0 -109 1 -116 28 -153 42 -58 119 -122 161 -134 73 -20 71 -23 71 108 0 128 -2 133 -69 206 -40 43 -122 86 -163 86 l-28 0 0 -113z"/>
 </g>

</svg>